<svg width="31" height="31" viewBox="0 0 31 31" fill="none" xmlns="http://www.w3.org/2000/svg">
<path d="M28.4804 20.0441C27.4054 19.1195 26.1968 18.3629 24.8954 17.8001C24.7547 17.7376 24.6032 17.7034 24.4493 17.6994C24.2954 17.6955 24.1423 17.7219 23.9987 17.7772C23.855 17.8324 23.7236 17.9154 23.6121 18.0214C23.5005 18.1275 23.4109 18.2544 23.3484 18.3951C23.2859 18.5357 23.2517 18.6873 23.2478 18.8412C23.2438 18.995 23.2702 19.1481 23.3255 19.2918C23.3807 19.4354 23.4637 19.5668 23.5698 19.6784C23.6758 19.79 23.8027 19.8796 23.9434 19.9421C25.0279 20.4073 26.0359 21.0337 26.9334 21.8001C27.4317 22.2393 27.8306 22.7798 28.1036 23.3854C28.3766 23.991 28.5173 24.6478 28.5164 25.3121V27.4801C28.5161 27.7908 28.3926 28.0888 28.1728 28.3085C27.9531 28.5282 27.6551 28.6518 27.3444 28.6521H4.37538C4.06463 28.6518 3.76668 28.5282 3.54695 28.3085C3.32721 28.0888 3.20365 27.7908 3.20338 27.4801V25.3171C3.20175 24.652 3.34213 23.9942 3.61512 23.3876C3.88811 22.7811 4.28743 22.2399 4.78638 21.8001C5.97038 20.7591 9.42038 18.3401 15.8594 18.3401C17.9169 18.3427 19.9084 17.6145 21.479 16.2853C23.0495 14.9562 24.097 13.1124 24.4346 11.0828C24.7723 9.05322 24.3781 6.96967 23.3225 5.20362C22.2669 3.43758 20.6184 2.10382 18.6708 1.44015C16.7233 0.776475 14.6034 0.826015 12.689 1.57994C10.7746 2.33386 9.1902 3.74316 8.21821 5.55659C7.24622 7.37002 6.94985 9.46971 7.38193 11.4813C7.81401 13.4929 8.94646 15.2857 10.5774 16.5401C7.87492 17.0679 5.35031 18.272 3.23938 20.0401C2.49014 20.6997 1.89027 21.5117 1.47985 22.4217C1.06943 23.3317 0.857897 24.3188 0.859383 25.3171V27.4851C0.860442 28.4172 1.23125 29.3107 1.89043 29.9697C2.5496 30.6287 3.4433 30.9993 4.37538 31.0001H27.3444C28.2763 30.999 29.1697 30.6283 29.8287 29.9694C30.4877 29.3104 30.8583 28.417 30.8594 27.4851V25.3171C30.8603 24.3195 30.6485 23.3331 30.2381 22.4239C29.8277 21.5146 29.2291 20.7033 28.4804 20.0441ZM9.53138 9.67207C9.53138 8.42051 9.90251 7.19705 10.5978 6.15642C11.2932 5.11579 12.2815 4.30471 13.4378 3.82576C14.5941 3.34681 15.8664 3.22149 17.0939 3.46566C18.3214 3.70983 19.449 4.31251 20.334 5.1975C21.2189 6.08248 21.8216 7.21002 22.0658 8.43754C22.31 9.66505 22.1846 10.9374 21.7057 12.0937C21.2267 13.25 20.4157 14.2383 19.375 14.9336C18.3344 15.6289 17.1109 16.0001 15.8594 16.0001C14.1817 15.9982 12.5732 15.3309 11.3869 14.1446C10.2005 12.9583 9.53324 11.3498 9.53138 9.67207Z" fill="black"/>
</svg>
