<svg width="18" height="18" viewBox="0 0 18 18" fill="none" xmlns="http://www.w3.org/2000/svg">
<path d="M9 18C10.78 18 12.5201 17.4722 14.0001 16.4832C15.4802 15.4943 16.6337 14.0887 17.3149 12.4442C17.9961 10.7996 18.1743 8.99002 17.8271 7.24419C17.4798 5.49836 16.6226 3.89471 15.364 2.63604C14.1053 1.37737 12.5016 0.520203 10.7558 0.172936C9.00998 -0.17433 7.20038 0.00389957 5.55585 0.685088C3.91131 1.36628 2.50571 2.51983 1.51677 3.99987C0.527841 5.47991 0 7.21997 0 9C0.00269968 11.3861 0.951778 13.6737 2.63902 15.361C4.32626 17.0482 6.61388 17.9973 9 18ZM1.6914 13.1325L2.3775 11.5935C2.44195 11.447 2.54756 11.3224 2.6815 11.2348C2.81545 11.1472 2.97195 11.1003 3.132 11.1C3.48529 11.1311 3.82268 11.261 4.1055 11.475C4.62593 11.7992 5.18461 12.0574 5.7687 12.2439C6.01216 12.3264 6.22347 12.4834 6.37268 12.6927C6.5219 12.902 6.60143 13.153 6.6 13.41V14.49C6.59527 14.6121 6.56123 14.7313 6.50077 14.8375C6.44031 14.9437 6.35519 15.0338 6.2526 15.1002C6.08151 15.2219 5.94207 15.3828 5.84593 15.5694C5.74979 15.7561 5.69975 15.963 5.7 16.173V16.7238C4.00811 15.9956 2.60049 14.7345 1.6914 13.1325ZM16.5777 5.3775L16.2519 6.1923C16.2384 6.22432 16.2157 6.25164 16.1867 6.2708C16.1578 6.28997 16.1237 6.30013 16.089 6.3H15.6C15.3613 6.30462 15.1342 6.40386 14.9687 6.57591C14.8032 6.74796 14.7128 6.97871 14.7174 7.2174C14.722 7.4561 14.8213 7.68318 14.9933 7.8487C15.1653 8.01422 15.3961 8.10462 15.6348 8.1C15.7248 8.0949 15.7548 8.2182 15.7335 8.2848C15.1364 10.0144 14.3773 11.6837 13.4661 13.2705C13.4146 13.3588 13.3354 13.4277 13.2408 13.4664C13.1462 13.5051 13.0414 13.5116 12.9428 13.4848C12.8441 13.458 12.7571 13.3993 12.6951 13.318C12.6331 13.2367 12.5997 13.1372 12.6 13.035V11.1C12.5995 10.7023 12.4413 10.3211 12.1601 10.0399C11.8789 9.75867 11.4977 9.60048 11.1 9.6C10.8458 9.59654 10.595 9.53992 10.364 9.43377C10.1329 9.32763 9.92665 9.17431 9.75839 8.98368C9.59013 8.79304 9.46363 8.56931 9.38701 8.32686C9.31039 8.08441 9.28535 7.82861 9.3135 7.5759C9.37823 7.13075 9.60368 6.72469 9.94729 6.43436C10.2909 6.14404 10.7289 5.98953 11.1786 6H12.8319C12.9604 5.99971 13.0875 5.97346 13.2056 5.92283C13.3238 5.87219 13.4304 5.79822 13.5192 5.70534C13.6081 5.61246 13.6772 5.50259 13.7225 5.38233C13.7678 5.26207 13.7884 5.1339 13.7829 5.0055C13.7579 4.78514 13.6531 4.58154 13.4883 4.43315C13.3235 4.28475 13.1101 4.20182 12.8883 4.2H10.6764C10.5465 4.20038 10.4188 4.16583 10.3068 4.09997C10.1948 4.0341 10.1026 3.93934 10.0398 3.8256C9.97732 3.71938 9.94501 3.59813 9.94633 3.47491C9.94765 3.35169 9.98256 3.23116 10.0473 3.1263C10.0599 3.1053 11.0235 1.4961 11.3574 0.939004C12.4895 1.27264 13.5391 1.84005 14.4383 2.60458C15.3375 3.36911 16.0663 4.31376 16.5777 5.3775ZM5.4 1.4121C5.97451 1.13875 6.57845 0.932103 7.2 0.796204V1.482C7.19935 1.55707 7.17715 1.63037 7.13603 1.69318C7.09492 1.75599 7.03663 1.80567 6.9681 1.8363L5.94 2.2767C5.88085 2.30233 5.8162 2.31263 5.75202 2.30665C5.68783 2.30068 5.6262 2.27861 5.5728 2.2425C5.5195 2.20802 5.47574 2.16068 5.44554 2.10485C5.41535 2.04902 5.39968 1.98648 5.4 1.923V1.4121ZM2.3316 3.9H3.5016C3.57726 3.90374 3.65048 3.92799 3.71342 3.97016C3.77635 4.01232 3.82663 4.07081 3.85887 4.13936C3.89111 4.20791 3.9041 4.28394 3.89644 4.35931C3.88878 4.43467 3.86077 4.50654 3.8154 4.5672L2.2554 6.3582C2.05878 6.58789 1.9534 6.88181 1.9593 7.1841C1.96019 7.26113 1.9456 7.33755 1.91638 7.40882C1.88716 7.4801 1.84391 7.54477 1.7892 7.599C1.72574 7.66279 1.65029 7.7134 1.56719 7.74789C1.48409 7.78239 1.39498 7.8001 1.305 7.8H0.687C0.891566 6.38045 1.45792 5.0374 2.3316 3.9ZM0.6237 8.4H1.305C1.47454 8.39987 1.64239 8.36619 1.79886 8.3009C1.95533 8.23561 2.09734 8.14001 2.2167 8.0196C2.32784 7.9082 2.41542 7.77557 2.47423 7.6296C2.53304 7.48364 2.56187 7.32734 2.559 7.17C2.55596 7.01574 2.60929 6.86566 2.709 6.7479L4.269 4.9572C4.38905 4.80948 4.4652 4.63101 4.48879 4.44213C4.51237 4.25324 4.48244 4.06153 4.4024 3.88882C4.32237 3.71611 4.19544 3.56935 4.03607 3.46525C3.87671 3.36115 3.69131 3.30389 3.501 3.3H2.8371C3.40954 2.68184 4.07115 2.1527 4.8 1.7301V1.923C4.80095 2.18441 4.90544 2.4348 5.0906 2.61933C5.27575 2.80387 5.52649 2.90753 5.7879 2.9076C5.92098 2.90751 6.05268 2.88068 6.1752 2.8287L7.2081 2.3859C7.38349 2.30846 7.53271 2.1819 7.63774 2.0215C7.74278 1.8611 7.79913 1.67373 7.8 1.482V0.687004C8.78141 0.544264 9.78039 0.577381 10.7502 0.784804C9.5661 2.7615 9.5319 2.8188 9.5322 2.8188C9.41328 3.01471 9.3492 3.23897 9.34667 3.46813C9.34414 3.69729 9.40324 3.92292 9.5178 4.1214C9.63379 4.32676 9.80209 4.49773 10.0056 4.61692C10.2091 4.73612 10.4406 4.79929 10.6764 4.8H12.8883C12.9617 4.80216 13.0319 4.83026 13.0865 4.87931C13.1411 4.92837 13.1765 4.99519 13.1865 5.0679C13.1857 5.11319 13.1758 5.15786 13.1574 5.19925C13.139 5.24064 13.1124 5.27793 13.0794 5.30889C13.0463 5.33986 13.0074 5.36387 12.9649 5.37952C12.9224 5.39517 12.8771 5.40214 12.8319 5.4H11.1786C10.5822 5.38971 10.0027 5.59813 9.54947 5.98591C9.09624 6.37369 8.80068 6.914 8.7186 7.5048C8.67677 7.84228 8.70714 8.1848 8.80769 8.50965C8.90824 8.83451 9.07668 9.13429 9.30185 9.38912C9.52702 9.64396 9.80377 9.84804 10.1138 9.98783C10.4238 10.1276 10.7599 10.1999 11.1 10.2C11.2196 10.2007 11.3379 10.2251 11.448 10.2718C11.5582 10.3185 11.658 10.3865 11.7416 10.472C11.8253 10.5574 11.8912 10.6586 11.9356 10.7697C11.9799 10.8808 12.0018 10.9996 12 11.1192V13.035C11.9999 13.2692 12.077 13.4969 12.2194 13.6828C12.3618 13.8688 12.5615 14.0026 12.7876 14.0635C13.0137 14.1245 13.2536 14.1092 13.4701 14.02C13.6867 13.9308 13.8678 13.7727 13.9854 13.5702C14.9162 11.9488 15.6918 10.2431 16.302 8.4759C16.3411 8.35964 16.3514 8.23561 16.332 8.11449C16.3126 7.99336 16.2641 7.87875 16.1907 7.7805C16.1243 7.69036 16.037 7.61772 15.9363 7.56885C15.8356 7.51998 15.7245 7.49635 15.6126 7.5C15.5732 7.50083 15.534 7.49389 15.4973 7.47958C15.4606 7.46526 15.4271 7.44386 15.3986 7.41659C15.3702 7.38932 15.3474 7.35671 15.3315 7.32063C15.3157 7.28455 15.3071 7.2457 15.3063 7.2063C15.3055 7.16691 15.3124 7.12773 15.3267 7.09102C15.341 7.0543 15.3624 7.02077 15.3897 6.99233C15.417 6.96388 15.4496 6.94109 15.4857 6.92525C15.5218 6.90941 15.5606 6.90083 15.6 6.9H16.089C16.2439 6.90084 16.3954 6.85501 16.5238 6.76848C16.6522 6.68195 16.7516 6.55874 16.809 6.4149L16.9077 6.1683C17.4413 7.65543 17.5445 9.26294 17.2054 10.8061C16.8662 12.3492 16.0986 13.7654 14.9906 14.8917C13.8827 16.0181 12.4794 16.809 10.9421 17.1735C9.40472 17.5381 7.79572 17.4614 6.3 16.9524V16.1724C6.29979 16.0583 6.32691 15.9457 6.37911 15.8442C6.4313 15.7427 6.50704 15.6551 6.6 15.5889C6.7811 15.4676 6.93023 15.3043 7.03469 15.113C7.13915 14.9217 7.19586 14.7079 7.2 14.49V13.41C7.20046 13.0258 7.07997 12.6511 6.85559 12.3392C6.63121 12.0273 6.31434 11.7939 5.9499 11.6721C5.40917 11.4985 4.89195 11.2588 4.41 10.9584C4.0367 10.6863 3.59311 10.5272 3.132 10.5C2.85599 10.5004 2.58603 10.5809 2.3549 10.7318C2.12378 10.8826 1.94143 11.0974 1.83 11.3499L1.3413 12.444C0.852143 11.3618 0.599422 10.1876 0.6 9C0.6 8.7981 0.6096 8.5983 0.6237 8.4Z" fill="white"/>
</svg>
