<svg width="30" height="30" viewBox="0 0 30 30" fill="none" xmlns="http://www.w3.org/2000/svg">
<path d="M24.8067 6.99454C24.8067 5.9975 23.9986 5.19244 23.0053 5.19244C22.0119 5.19244 21.2031 5.9975 21.2031 6.99454C21.2031 7.98791 22.0119 8.79297 23.0053 8.79297C23.9986 8.79297 24.8067 7.98791 24.8067 6.99454Z" fill="url(#paint0_linear_19061_2396)"/>
<path d="M27.2082 21.0606C27.1415 22.5232 26.8968 23.3178 26.6937 23.8456C26.4209 24.5454 26.0955 25.0458 25.5677 25.5707C25.0458 26.0955 24.5454 26.4202 23.8456 26.69C23.3178 26.8961 22.5202 27.1415 21.0576 27.2112C19.4764 27.2809 19.0079 27.2957 14.9981 27.2957C10.9921 27.2957 10.5199 27.2809 8.93867 27.2112C7.47611 27.1415 6.68217 26.8961 6.15432 26.69C5.45084 26.4202 4.95418 26.0955 4.42933 25.5707C3.90076 25.0458 3.57535 24.5454 3.30625 23.8456C3.1031 23.3178 2.85479 22.5232 2.79175 21.0606C2.71469 19.4793 2.70057 19.0034 2.70057 15.0019C2.70057 10.9921 2.71469 10.5199 2.79175 8.93867C2.85479 7.47611 3.1031 6.68217 3.30625 6.14987C3.57535 5.45084 3.90076 4.9534 4.42933 4.42855C4.95418 3.90449 5.45084 3.57902 6.15432 3.30625C6.68217 3.09943 7.47611 2.85774 8.93867 2.78808C10.5199 2.71836 10.9921 2.70057 14.9981 2.70057C19.0079 2.70057 19.4764 2.71836 21.0576 2.78808C22.5202 2.85774 23.3178 3.09943 23.8456 3.30625C24.5454 3.57902 25.0458 3.90449 25.5677 4.42855C26.0955 4.9534 26.4209 5.45084 26.6937 6.14987C26.8968 6.68217 27.1415 7.47611 27.2082 8.93867C27.2816 10.5199 27.2994 10.9921 27.2994 15.0019C27.2994 19.0034 27.2816 19.4793 27.2082 21.0606ZM29.9088 8.81563C29.8354 7.21736 29.5833 6.12541 29.209 5.17435C28.828 4.18765 28.3172 3.35145 27.481 2.51526C26.6485 1.68279 25.8124 1.17201 24.8257 0.786549C23.8709 0.415876 22.7826 0.160847 21.1836 0.0911827C19.5846 0.0140686 19.0739 0 14.9981 0C10.9261 0 10.4117 0.0140686 8.81268 0.0911827C7.21735 0.160847 6.12985 0.415876 5.17062 0.786549C4.18765 1.17201 3.35145 1.68279 2.51898 2.51526C1.68279 3.35145 1.17201 4.18765 0.787269 5.17435C0.416596 6.12541 0.16457 7.21736 0.0874558 8.81563C0.0177914 10.4146 0 10.9261 0 15.0019C0 19.0739 0.0177914 19.5846 0.0874558 21.1836C0.16457 22.7789 0.416596 23.8701 0.787269 24.8257C1.17201 25.8086 1.68279 26.6485 2.51898 27.481C3.35145 28.3135 4.18765 28.828 5.17062 29.2127C6.12985 29.5833 7.21735 29.8354 8.81268 29.9088C10.4117 29.9822 10.9261 30 14.9981 30C19.0739 30 19.5846 29.9822 21.1836 29.9088C22.7826 29.8354 23.8709 29.5833 24.8257 29.2127C25.8124 28.828 26.6485 28.3135 27.481 27.481C28.3172 26.6485 28.828 25.8086 29.209 24.8257C29.5833 23.8701 29.8354 22.7789 29.9088 21.1836C29.9822 19.5846 30 19.0739 30 15.0019C30 10.9261 29.9822 10.4146 29.9088 8.81563Z" fill="url(#paint1_linear_19061_2396)"/>
<path d="M14.9968 19.9988C12.2369 19.9988 9.99744 17.763 9.99744 15.0031C9.99744 12.2388 12.2369 10.0001 14.9968 10.0001C17.7575 10.0001 19.9999 12.2388 19.9999 15.0031C19.9999 17.763 17.7575 19.9988 14.9968 19.9988ZM14.9968 7.29579C10.7425 7.29579 7.29688 10.7488 7.29688 15.0031C7.29688 19.2538 10.7425 22.7031 14.9968 22.7031C19.2512 22.7031 22.7005 19.2538 22.7005 15.0031C22.7005 10.7488 19.2512 7.29579 14.9968 7.29579Z" fill="url(#paint2_linear_19061_2396)"/>
<defs>
<linearGradient id="paint0_linear_19061_2396" x1="0.269379" y1="29.6908" x2="27.5001" y2="2.46025" gradientUnits="userSpaceOnUse">
<stop stop-color="#FFD521"/>
<stop offset="0.05" stop-color="#FFD521"/>
<stop offset="0.501119" stop-color="#F50000"/>
<stop offset="0.95" stop-color="#B900B4"/>
<stop offset="0.950079" stop-color="#B900B4"/>
<stop offset="1" stop-color="#B900B4"/>
</linearGradient>
<linearGradient id="paint1_linear_19061_2396" x1="0.270596" y1="29.7272" x2="27.5237" y2="2.47412" gradientUnits="userSpaceOnUse">
<stop stop-color="#FFD521"/>
<stop offset="0.05" stop-color="#FFD521"/>
<stop offset="0.501119" stop-color="#F50000"/>
<stop offset="0.95" stop-color="#B900B4"/>
<stop offset="0.950079" stop-color="#B900B4"/>
<stop offset="1" stop-color="#B900B4"/>
</linearGradient>
<linearGradient id="paint2_linear_19061_2396" x1="0.276344" y1="29.7292" x2="27.5228" y2="2.48271" gradientUnits="userSpaceOnUse">
<stop stop-color="#FFD521"/>
<stop offset="0.05" stop-color="#FFD521"/>
<stop offset="0.501119" stop-color="#F50000"/>
<stop offset="0.95" stop-color="#B900B4"/>
<stop offset="0.950079" stop-color="#B900B4"/>
<stop offset="1" stop-color="#B900B4"/>
</linearGradient>
</defs>
</svg>
