<svg width="8" height="15" viewBox="0 0 8 15" fill="none" xmlns="http://www.w3.org/2000/svg">
<path d="M1.6129 7.4999L7.8129 1.1639C7.93802 1.03465 8.00798 0.861801 8.00798 0.681904C8.00798 0.502007 7.93802 0.32916 7.8129 0.199904C7.75173 0.136668 7.67846 0.0863825 7.59746 0.0520401C7.51646 0.0176977 7.42938 0 7.3414 0C7.25342 0 7.16634 0.0176977 7.08534 0.0520401C7.00434 0.0863825 6.93107 0.136668 6.8699 0.199904L0.202896 7.0189C0.077773 7.14816 0.0078125 7.32101 0.0078125 7.5009C0.0078125 7.6808 0.077773 7.85365 0.202896 7.9829L6.8699 14.8009C6.93107 14.8641 7.00434 14.9144 7.08534 14.9488C7.16634 14.9831 7.25342 15.0008 7.3414 15.0008C7.42938 15.0008 7.51646 14.9831 7.59746 14.9488C7.67846 14.9144 7.75173 14.8641 7.8129 14.8009C7.93802 14.6716 8.00798 14.4988 8.00798 14.3189C8.00798 14.139 7.93802 13.9662 7.8129 13.8369L1.6129 7.4999Z" fill="black"/>
</svg>
