<svg width="125" height="35" viewBox="0 0 125 35" fill="none" xmlns="http://www.w3.org/2000/svg">
<path d="M33.2712 8.78516H29.7695V12.2868V34.9994H33.2712V12.2868H36.7729H40.2746V8.78516H36.7729H33.2712Z" fill="white"/>
<path d="M47.279 8.78516H43.7773V34.9994H47.279V8.78516Z" fill="white"/>
<path d="M91.4036 12.2433C89.1089 9.94864 86.2935 8.78516 83.0346 8.78516C79.8066 8.78516 76.9997 9.94864 74.7036 12.2433C73.9778 12.9631 73.3455 13.7713 72.8215 14.6489C72.2975 13.7713 71.6652 12.9631 70.9394 12.2433C68.6462 9.94864 65.8434 8.78516 62.6084 8.78516C59.3495 8.78516 56.5341 9.94864 54.2394 12.2433C51.9447 14.538 50.7812 17.3394 50.7812 20.5758V35.0008H54.1412V20.5758C54.1698 18.3537 55.0727 16.2323 56.6542 14.671C58.2357 13.1098 60.3685 12.2343 62.5908 12.2343C64.8132 12.2343 66.946 13.1098 68.5275 14.671C70.109 16.2323 71.0119 18.3537 71.0405 20.5758V35.0008H74.6025V20.5758C74.6312 18.3537 75.534 16.2323 77.1155 14.671C78.697 13.1098 80.8299 12.2343 83.0522 12.2343C85.2745 12.2343 87.4074 13.1098 88.9889 14.671C90.5704 16.2323 91.4732 18.3537 91.5018 20.5758V35.0008H94.939L94.8618 20.5758C94.8618 17.3394 93.6983 14.5408 91.4036 12.2433Z" fill="white"/>
<path d="M47.279 2.31641H43.7773V5.81809H47.279V2.31641Z" fill="white"/>
<path d="M124.458 21.89C124.439 18.2887 123.138 15.1701 120.592 12.627C118.047 10.0839 114.927 8.78711 111.329 8.78711C107.732 8.78711 104.61 10.0797 102.066 12.627C99.5234 15.1743 98.2266 18.2929 98.2266 21.89C98.2266 25.4871 99.5178 28.6099 102.066 31.153C104.615 33.6961 107.739 34.9915 111.36 34.9929H111.692V31.5993H111.352C108.67 31.5993 106.353 30.6421 104.465 28.7544C103.043 27.3699 102.094 25.5725 101.752 23.6177H124.323L124.355 23.323C124.407 22.8668 124.442 22.3896 124.462 21.9054V21.89H124.458ZM101.745 20.2185C102.068 18.2536 102.98 16.5105 104.461 15.0256C105.362 14.1236 106.431 13.408 107.609 12.9197C108.787 12.4315 110.049 12.1802 111.324 12.1802C112.599 12.1802 113.861 12.4315 115.039 12.9197C116.216 13.408 117.286 14.1236 118.187 15.0256C119.668 16.5063 120.573 18.2536 120.903 20.2185H101.745Z" fill="white"/>
<path d="M14.425 0H0V35H3.5087V23.6178H14.425C17.6614 23.6178 20.4599 22.4529 22.7574 20.1582C25.0549 17.8635 26.2142 15.0622 26.2142 11.8271C26.2142 8.56825 25.0521 5.75287 22.7574 3.45818C20.4628 1.16349 17.6614 0 14.425 0ZM20.3827 17.7807C19.61 18.5763 18.6831 19.206 17.6587 19.6312C16.6344 20.0564 15.534 20.2682 14.425 20.2536H3.50169V3.35993H14.425C16.0935 3.36502 17.7232 3.86386 19.1087 4.7936C20.4942 5.72334 21.5735 7.04236 22.2106 8.58447C22.8477 10.1266 23.0141 11.8228 22.6888 13.4593C22.3635 15.0958 21.5611 16.5994 20.3827 17.7807Z" fill="white"/>
</svg>
