<svg width="18" height="28" viewBox="0 0 18 28" fill="none" xmlns="http://www.w3.org/2000/svg">
<path d="M8.70016 1.43898e-06C7.25353 0.00372772 5.8288 0.364345 4.55463 1.0489C3.3241 1.71002 2.27544 2.68206 1.48741 3.83175C0.679089 5.01101 0.201448 6.38616 0.0442668 7.80276C-0.0873539 8.98914 0.0872887 10.1682 0.399526 11.3135C0.753861 12.6133 1.27203 13.8682 1.84039 15.0874C2.45628 16.4085 3.15435 17.691 3.89825 18.944C5.2209 21.1719 6.68625 23.3456 8.35753 25.3287C8.37009 25.3436 8.38269 25.3585 8.39531 25.3734C8.53836 25.5423 8.86205 25.5426 9.00504 25.3734C10.6724 23.3998 12.131 21.2352 13.4543 19.0193C14.202 17.7672 14.9003 16.484 15.5219 15.1644C16.0972 13.9429 16.6157 12.6847 16.9808 11.3833C17.3006 10.2435 17.4775 9.07099 17.3646 7.88745C17.229 6.46611 16.7484 5.08905 15.958 3.89883C14.3693 1.50656 11.6564 0.0373566 8.7871 0.000432577C8.75812 0.000155415 8.72917 1.43898e-06 8.70016 1.43898e-06C8.46513 -0.000614474 8.26902 0.19657 8.26902 0.431141C8.26902 0.666605 8.46516 0.861664 8.70016 0.86228C9.05816 0.863204 9.41508 0.8859 9.77028 0.930862C9.67937 0.919345 9.81728 0.937976 9.82328 0.938869C9.86501 0.945028 9.90664 0.951803 9.94828 0.958609C10.0312 0.972128 10.1139 0.987557 10.1964 1.00363C10.3739 1.03819 10.5499 1.07994 10.7248 1.12614C11.0571 1.21397 11.3831 1.32514 11.7018 1.45387C11.7071 1.45602 11.8314 1.5085 11.7499 1.47367C11.7875 1.48974 11.8249 1.50637 11.8622 1.523C11.9368 1.55623 12.0106 1.59106 12.0842 1.62647C12.2431 1.70294 12.399 1.78569 12.5526 1.87219C12.8468 2.03778 13.1294 2.22348 13.4011 2.42365C13.4336 2.44761 13.4658 2.47206 13.498 2.49651C13.4284 2.44367 13.5337 2.52482 13.5382 2.52836C13.6015 2.57843 13.6637 2.62986 13.7256 2.68175C13.8595 2.79412 13.989 2.91167 14.1156 3.03224C14.359 3.26413 14.5865 3.51243 14.8001 3.77198C14.8257 3.80314 14.8509 3.83471 14.8761 3.86624C14.8797 3.87068 14.9612 3.97578 14.908 3.90643C14.9572 3.97055 15.005 4.03574 15.0523 4.10128C15.1549 4.24349 15.252 4.38968 15.3455 4.53811C15.526 4.82491 15.6867 5.124 15.8306 5.43073C15.8653 5.50473 15.8983 5.5795 15.9308 5.65452C15.8956 5.57316 15.9484 5.69729 15.9506 5.70262C15.9662 5.74056 15.9812 5.77878 15.9961 5.81693C16.0613 5.98305 16.1199 6.15171 16.1741 6.32171C16.2796 6.65242 16.3614 6.99043 16.4243 7.33174C16.486 7.66671 16.5141 7.92548 16.5332 8.31474C16.5472 8.60154 16.5447 8.88868 16.5247 9.17511C16.5162 9.29814 16.5037 9.42089 16.4894 9.5434C16.4857 9.57478 16.4817 9.60606 16.4777 9.63738C16.4931 9.51716 16.4788 9.62704 16.4757 9.64924C16.465 9.7242 16.453 9.79897 16.4405 9.87365C16.3441 10.4507 16.1967 11.0187 16.0249 11.5775C15.8331 12.2012 15.6055 12.8136 15.3583 13.4173C15.3272 13.4932 15.2957 13.5688 15.2639 13.6444C15.298 13.5634 15.2449 13.6888 15.2429 13.6935C15.2267 13.7316 15.2102 13.7697 15.1937 13.8077C15.1218 13.9743 15.048 14.1401 14.9732 14.3055C14.8264 14.6297 14.6737 14.9513 14.5172 15.2709C13.8737 16.5845 13.1556 17.8612 12.3927 19.1088C11.7256 20.2001 11.0204 21.2685 10.2795 22.3111C9.95136 22.7727 9.61526 23.2287 9.27031 23.6779C9.25627 23.6962 9.2422 23.7145 9.22809 23.7328C9.29181 23.6501 9.22141 23.7412 9.21159 23.754C9.1702 23.8072 9.12862 23.8604 9.08696 23.9135C9.00615 24.0164 8.92463 24.1188 8.84268 24.2208C8.69582 24.4036 8.54674 24.5846 8.39544 24.7636C8.59869 24.7636 8.80191 24.7636 9.00516 24.7636C8.8397 24.5682 8.67713 24.3704 8.51677 24.1708C8.43418 24.068 8.35239 23.9646 8.27099 23.8608C8.22905 23.8074 8.18732 23.7537 8.14569 23.7C8.07464 23.6085 8.19989 23.7704 8.12872 23.678C8.10029 23.6411 8.07196 23.6041 8.04369 23.5671C7.66429 23.0709 7.29662 22.5657 6.93732 22.0548C6.12734 20.903 5.36274 19.7189 4.64295 18.5088C3.89795 17.2562 3.20261 15.9725 2.5851 14.6522C2.43678 14.335 2.29389 14.0154 2.15617 13.6935C2.15417 13.6889 2.10108 13.5635 2.1352 13.6445C2.11925 13.6067 2.10348 13.5687 2.08768 13.5308C2.05633 13.4554 2.02548 13.3799 1.9948 13.3042C1.9293 13.1426 1.86577 12.9803 1.80362 12.8174C1.57823 12.2263 1.37723 11.6256 1.21229 11.0148C1.13665 10.7348 1.07029 10.4522 1.01365 10.1678C0.987816 10.038 0.964873 9.90768 0.943963 9.77704C0.933769 9.71345 0.924561 9.64967 0.915661 9.58586C0.932322 9.7055 0.917478 9.59701 0.914707 9.57465C0.909533 9.5332 0.904914 9.49169 0.900356 9.45018C0.834176 8.84612 0.850498 8.23649 0.926717 7.63413C0.9152 7.72503 0.933831 7.5871 0.934724 7.58113C0.940883 7.5394 0.947658 7.49776 0.954464 7.45613C0.967983 7.37316 0.983443 7.29054 0.999487 7.20801C1.03404 7.0305 1.0758 6.85447 1.12199 6.67964C1.20982 6.3473 1.32099 6.02129 1.44975 5.70262C1.45191 5.69729 1.50438 5.573 1.46955 5.65452C1.4856 5.61692 1.50226 5.57953 1.51889 5.54221C1.55212 5.46762 1.58695 5.39377 1.62236 5.3202C1.69883 5.16129 1.78157 5.00547 1.86808 4.8518C2.03367 4.55764 2.21937 4.27503 2.41954 4.00335C2.49406 3.90218 2.53782 3.84684 2.65174 3.70977C2.75487 3.58563 2.8625 3.46532 2.97266 3.3474C3.18382 3.12142 3.40909 2.90887 3.64403 2.70783C3.69512 2.6641 3.74711 2.62136 3.79925 2.57886C3.83056 2.55336 3.86222 2.52833 3.89388 2.50326C3.99819 2.42079 3.82866 2.55247 3.93456 2.47203C4.06338 2.37419 4.19574 2.28107 4.33004 2.19096C4.58842 2.01755 4.85772 1.86068 5.13393 1.71751C5.26672 1.64868 5.40185 1.58447 5.53815 1.52297C5.57542 1.50616 5.61296 1.4899 5.65047 1.47364C5.56913 1.50887 5.69327 1.45602 5.6986 1.45383C5.77454 1.4227 5.85122 1.39329 5.92806 1.36447C6.22502 1.25305 6.52907 1.16115 6.83684 1.08481C6.98567 1.04789 7.1358 1.01629 7.28646 0.987773C7.36917 0.972098 7.45226 0.958332 7.53541 0.945213C7.57714 0.938623 7.61899 0.932679 7.66084 0.926736C7.56999 0.939639 7.70848 0.921131 7.71436 0.920422C8.04141 0.880727 8.37092 0.863142 8.70032 0.86228C8.93535 0.861664 9.13146 0.666605 9.13146 0.431141C9.1313 0.19657 8.93519 -0.000614474 8.70016 1.43898e-06Z" fill="black"/>
<path d="M8.69726 12.9099C8.52564 12.9091 8.35478 12.8998 8.18411 12.8819C8.17783 12.8813 8.03977 12.8629 8.13115 12.8759C8.08954 12.87 8.04812 12.863 8.0067 12.8559C7.91071 12.8397 7.81552 12.8191 7.72076 12.7968C7.5601 12.759 7.40212 12.7105 7.24648 12.6557C7.06118 12.5905 7.02167 12.5725 6.82492 12.4747C6.67996 12.4026 6.53987 12.321 6.40329 12.2343C6.33523 12.191 6.26887 12.1451 6.20315 12.0984C6.17032 12.0751 6.13811 12.0509 6.1059 12.0268C6.17189 12.0762 6.04686 11.9787 6.03544 11.9693C5.77629 11.7569 5.54326 11.5136 5.33545 11.251C5.38993 11.3199 5.30924 11.2148 5.30567 11.2099C5.28177 11.1775 5.25871 11.1445 5.23567 11.1114C5.18948 11.0452 5.1459 10.9773 5.10325 10.9088C5.01034 10.7598 4.92793 10.6044 4.85251 10.4459C4.78159 10.2969 4.7637 10.2489 4.69792 10.0564C4.63993 9.88673 4.59414 9.71308 4.55626 9.53791C4.53855 9.45609 4.52417 9.37356 4.51093 9.2909C4.48903 9.15426 4.52041 9.37623 4.50341 9.23839C4.49821 9.19629 4.49418 9.15404 4.49011 9.11185C4.47234 8.92637 4.46818 8.73975 4.47243 8.55353C4.47437 8.46785 4.47982 8.3823 4.48645 8.29691C4.48971 8.25456 4.49414 8.21228 4.49861 8.17003C4.49926 8.16375 4.51761 8.02569 4.50465 8.11706C4.53005 7.93801 4.56827 7.76094 4.6144 7.58614C4.65638 7.42705 4.70895 7.27089 4.76764 7.11722C4.76977 7.11161 4.82049 6.98692 4.78581 7.06896C4.80167 7.03145 4.81855 6.99434 4.83536 6.95726C4.87456 6.87101 4.91752 6.78653 4.9619 6.70283C5.03769 6.56003 5.12272 6.42228 5.21288 6.28817C5.25785 6.22131 5.3054 6.15621 5.35374 6.09178C5.30111 6.16193 5.38186 6.05714 5.38568 6.05243C5.41931 6.0107 5.4542 5.96995 5.48925 5.9294C5.59435 5.80772 5.70719 5.69295 5.82418 5.58276C5.88269 5.52764 5.94333 5.47482 6.00461 5.42278C6.03528 5.39675 6.0666 5.3715 6.09792 5.34628C6.13731 5.31524 6.13999 5.31302 6.10596 5.3396C6.12736 5.3234 6.14892 5.30739 6.17057 5.29153C6.44219 5.09135 6.73758 4.9246 7.04572 4.78786C7.16823 4.73348 6.96876 4.8185 7.09333 4.7684C7.1313 4.75313 7.16967 4.73887 7.20801 4.72461C7.28503 4.69597 7.36319 4.67041 7.4416 4.64593C7.61335 4.59228 7.78879 4.55107 7.96553 4.51778C8.00676 4.51002 8.04818 4.5034 8.0896 4.49675C8.22624 4.47486 8.00427 4.50624 8.14211 4.48924C8.22655 4.47883 8.31136 4.47187 8.39617 4.46608C8.58239 4.45333 8.76939 4.45422 8.9557 4.46355C9.04082 4.4678 9.12569 4.47556 9.21041 4.48443C9.21669 4.48508 9.35472 4.50343 9.26338 4.49047C9.30498 4.49635 9.34637 4.5034 9.38779 4.51042C9.56542 4.54054 9.74068 4.58338 9.91348 4.63398C9.99241 4.65707 10.0704 4.68337 10.148 4.71063C10.1866 4.72421 10.2249 4.73884 10.2631 4.75346C10.2687 4.75559 10.3934 4.80631 10.3114 4.77163C10.4735 4.84018 10.6306 4.92007 10.7838 5.00654C11.1098 5.19064 11.2906 5.32777 11.5408 5.55544C11.6597 5.66363 11.7716 5.77939 11.8787 5.89919C12.0233 6.06086 12.0481 6.09625 12.1589 6.25491C12.2513 6.38745 12.3351 6.52585 12.4133 6.66723C12.4526 6.73821 12.4891 6.81074 12.5245 6.88369C12.5423 6.92028 12.5592 6.95729 12.576 6.99434C12.5872 7.01913 12.5981 7.04398 12.6088 7.06896C12.5916 7.02868 12.5927 7.03207 12.612 7.07918C12.7408 7.39937 12.8291 7.73498 12.8837 8.07546C12.9056 8.2121 12.8742 7.99012 12.8912 8.12796C12.8964 8.17006 12.9004 8.21228 12.9045 8.2545C12.9126 8.33965 12.9173 8.42508 12.9208 8.51051C12.9284 8.69685 12.9226 8.88356 12.9081 9.06945C12.9049 9.11179 12.9004 9.15407 12.896 9.19633C12.8953 9.20261 12.877 9.34066 12.8899 9.24929C12.8781 9.33232 12.863 9.41482 12.8468 9.49705C12.812 9.67314 12.7646 9.84658 12.7096 10.0174C12.5256 10.5888 12.168 11.1702 11.7423 11.6146C11.6403 11.721 11.5321 11.8212 11.4206 11.9175C11.3699 11.9613 11.3176 12.0034 11.2651 12.045C11.3339 11.9905 11.2288 12.0712 11.224 12.0747C11.1915 12.0986 11.1585 12.1217 11.1254 12.1447C10.8818 12.3148 10.6202 12.458 10.3488 12.5784C10.3022 12.5986 10.2989 12.6 10.3391 12.5826C10.3013 12.5982 10.2631 12.6128 10.2249 12.6274C10.1482 12.6567 10.0704 12.6829 9.99228 12.7081C9.84773 12.7547 9.70037 12.7921 9.55197 12.8242C9.36975 12.8637 9.29861 12.8726 9.16822 12.8863C9.01178 12.9028 8.85447 12.9091 8.69726 12.9099C8.46226 12.9109 8.26612 13.1052 8.26612 13.341C8.26612 13.5752 8.46223 13.7732 8.69726 13.7721C10.1494 13.7655 11.5546 13.1393 12.515 12.0467C13.5063 10.919 13.9375 9.41171 13.7273 7.92958C13.5247 6.50106 12.6847 5.23249 11.4939 4.43174C10.2745 3.61178 8.69865 3.39257 7.29138 3.79098C5.92245 4.17851 4.7471 5.17081 4.12543 6.44849C3.46184 7.81231 3.45741 9.38544 4.05743 10.77C4.84568 12.5889 6.73287 13.7632 8.69726 13.7721C8.93229 13.7732 9.1284 13.5752 9.1284 13.341C9.1284 13.1052 8.93226 12.9109 8.69726 12.9099Z" fill="black"/>
<path d="M13.2648 22.1718C13.4562 22.2607 13.6435 22.3568 13.8263 22.4624C13.9123 22.5121 13.9964 22.5651 14.0797 22.6194C14.12 22.6457 14.1596 22.6732 14.1992 22.7006C14.2148 22.7115 14.3332 22.7982 14.3 22.7726C14.4394 22.8804 14.5701 22.9991 14.6928 23.1256C14.7502 23.1848 14.8041 23.2474 14.8564 23.3111C14.8011 23.2437 14.8813 23.3449 14.8854 23.3507C14.9158 23.3926 14.9438 23.4361 14.9714 23.4799C15.0117 23.5436 15.047 23.6103 15.0804 23.6778C15.0866 23.6904 15.1336 23.8031 15.0958 23.7093C15.1093 23.7429 15.1209 23.7772 15.1325 23.8114C15.1554 23.8792 15.1721 23.9489 15.1865 24.0188C15.1902 24.0368 15.2055 24.1543 15.1924 24.0446C15.1981 24.0917 15.2001 24.1391 15.2016 24.1864C15.2035 24.2426 15.2008 24.2988 15.1967 24.3548C15.1946 24.383 15.1819 24.4783 15.2002 24.3453C15.1966 24.3716 15.1917 24.3976 15.1869 24.4236C15.1657 24.5378 15.13 24.6489 15.0871 24.7566C15.1375 24.6301 15.0647 24.7982 15.0492 24.8283C15.0233 24.8785 14.9944 24.9271 14.9647 24.9752C14.9341 25.0246 14.9009 25.0722 14.8669 25.1193C14.8065 25.2027 14.9265 25.0451 14.8618 25.1265C14.8366 25.1582 14.8102 25.1889 14.7837 25.2195C14.7006 25.3154 14.6099 25.4046 14.5163 25.4901C14.4671 25.535 14.4161 25.5779 14.3647 25.6201C14.3522 25.6305 14.2619 25.7009 14.3445 25.6374C14.3075 25.6658 14.2698 25.6932 14.232 25.7204C13.6695 26.1256 13.1175 26.3623 12.5055 26.5667C10.8972 27.1038 9.21027 27.2256 7.51562 27.0877C6.7294 27.0236 5.94267 26.8821 5.15833 26.6481C4.482 26.4464 3.95629 26.2318 3.35186 25.8416C3.26209 25.7837 3.17481 25.7221 3.08911 25.6583C3.05049 25.629 3.05222 25.6305 3.09435 25.6627C3.06758 25.6418 3.04138 25.6203 3.01517 25.5987C2.97239 25.5636 2.93082 25.527 2.88962 25.4901C2.8182 25.4261 2.75023 25.3583 2.68449 25.2884C2.64932 25.251 2.61566 25.2123 2.58246 25.1732C2.56953 25.1578 2.55674 25.1422 2.54409 25.1265C2.47852 25.0457 2.60032 25.202 2.53904 25.1193C2.48755 25.0498 2.44086 24.9768 2.39725 24.9021C2.37376 24.8619 2.35235 24.8205 2.33154 24.7788C2.32344 24.7623 2.31555 24.7456 2.30792 24.7289C2.26659 24.6402 2.34481 24.8218 2.30878 24.7314C2.27567 24.6484 2.25036 24.5625 2.22994 24.4755C2.21984 24.4325 2.21242 24.3889 2.20574 24.3453C2.22775 24.4886 2.20771 24.3349 2.20583 24.3018C2.20367 24.2634 2.20389 24.2249 2.20429 24.1864C2.20457 24.1593 2.22292 23.9776 2.20728 24.0886C2.22397 23.9703 2.25701 23.8549 2.29738 23.7428C2.31546 23.697 2.31466 23.6975 2.29495 23.7442C2.30949 23.7102 2.3259 23.677 2.34228 23.6439C2.37022 23.5873 2.40215 23.533 2.43486 23.4792C2.46861 23.4237 2.50606 23.3705 2.54415 23.3179C2.51662 23.3522 2.51862 23.3497 2.55012 23.3102C2.57559 23.2783 2.60245 23.2475 2.62924 23.2167C3.03115 22.7548 3.52496 22.4628 4.09431 22.1934C4.30671 22.0929 4.35989 21.7928 4.24897 21.6035C4.12264 21.3878 3.87154 21.3483 3.65911 21.4488C2.40372 22.0429 1.0206 23.2015 1.41099 24.7564C1.70355 25.9217 2.889 26.6724 3.92109 27.112C5.47313 27.7732 7.18928 28.0137 8.8681 27.9979C10.5187 27.9824 12.2038 27.7032 13.7112 27.0119C14.6911 26.5625 15.7684 25.7989 16.0131 24.6788C16.3505 23.1346 14.9411 22.0036 13.6999 21.4271C13.4868 21.3281 13.237 21.365 13.1101 21.5818C12.9999 21.7701 13.0517 22.0728 13.2648 22.1718Z" fill="black"/>
</svg>
