<svg width="129" height="61" viewBox="0 0 129 61" fill="none" xmlns="http://www.w3.org/2000/svg">
<path d="M84.3794 0H78.8125V38.9998H84.3794V0Z" fill="#0055B8"/>
<path d="M123.348 13.9221V28.6596C123.348 30.2149 122.857 31.3952 121.876 32.2004C120.895 33.0056 119.598 33.4148 117.985 33.4279H101.167C99.3307 33.4279 97.9341 32.9977 96.9768 32.1374C96.0194 31.2772 95.5381 30.0484 95.5329 28.4511V13.8945H89.9699V38.0506C89.9699 41.8379 88.8972 44.8003 86.7518 46.9379C84.7925 48.8814 82.1461 49.9384 78.8125 50.1089V55.7034C81.6828 55.6539 84.5025 54.9402 87.0507 53.6182C89.6279 52.255 91.7584 50.1791 93.1881 47.6382C94.6647 45.0548 95.4516 42.0176 95.5486 38.5266V36.8192C96.1252 37.5545 96.907 38.1022 97.795 38.3928C98.8758 38.8076 100.025 39.0158 101.182 39.0066H118.001C121.308 39.0066 123.968 38.0886 125.98 36.2526C127.991 34.4167 128.997 31.9066 128.997 28.7226V13.9221H123.348Z" fill="#0055B8"/>
<path d="M67.6694 28.6446C67.6694 30.1973 67.1776 31.3775 66.1941 32.1853C65.2105 32.9932 63.8991 33.4023 62.2599 33.4128H46.8259C45.2182 33.4128 44.0117 32.9499 43.2065 32.024C42.4196 31.1152 42.0262 29.7815 42.0026 28.0269C42.0026 27.8734 42.0026 27.72 42.0026 27.5666V19.2261C42.0026 19.1041 42.0026 18.9821 42.0026 18.8602C42.0085 18.8211 42.0085 18.7813 42.0026 18.7422C41.9908 18.0968 41.852 17.4601 41.5942 16.8685C41.3363 16.2768 40.9644 15.7417 40.4996 15.2938C40.0349 14.8459 39.4865 14.4939 38.8858 14.258C38.285 14.0221 37.6436 13.9068 36.9983 13.9188H14.7386H14.6874C12.187 13.8943 9.71305 14.4321 7.44848 15.4925C5.38869 16.472 3.6711 18.0484 2.5189 20.0168C1.35149 22.0978 0.761985 24.4532 0.811472 26.8388V55.7119H6.3823V26.8466C6.3823 24.4861 7.10881 22.6501 8.56184 21.3387C10.0136 20.0247 12.0397 19.3244 14.6323 19.3244H17.7797V27.421C17.819 33.8416 23.2325 39.0348 29.901 39.0348C31.7083 39.0437 33.4953 38.6533 35.1343 37.8916C36.7733 37.1299 38.2239 36.0157 39.3824 34.6285C39.5425 35.3508 39.8595 36.0289 40.3109 36.615C40.7624 37.2011 41.3373 37.6807 41.9948 38.0198H42.0301C43.531 38.7131 45.1736 39.0446 46.8259 38.9876H62.248C65.558 38.9876 68.2176 38.0696 70.2266 36.2337C72.2357 34.3977 73.2415 31.8877 73.2442 28.7036V13.9188H67.6694V28.6446ZM36.4633 27.3305C36.4633 30.8241 33.5244 33.6567 29.901 33.6567C26.2776 33.6567 23.3387 30.8241 23.3387 27.3305V19.3047H36.479V27.3305H36.4633Z" fill="#0055B8"/>
<path d="M64.161 48.457H56.8906V55.7314H64.161V48.457Z" fill="#0055B8"/>
<path d="M54.5868 48.457H47.3164V55.7314H54.5868V48.457Z" fill="#0055B8"/>
<path d="M123.399 44.2344H116.129V51.5048H123.399V44.2344Z" fill="#0055B8"/>
<path d="M123.399 53.7305H116.129V61.0009H123.399V53.7305Z" fill="#0055B8"/>
<path d="M113.821 44.2344H106.551V51.5048H113.821V44.2344Z" fill="#0055B8"/>
</svg>
