<svg width="29" height="22" viewBox="0 0 29 22" fill="none" xmlns="http://www.w3.org/2000/svg">
<path fill-rule="evenodd" clip-rule="evenodd" d="M23.9563 9.02653C22.1716 9.02653 20.181 7.5507 19.4602 6.04056L8.9922 9.54135C8.9922 9.67863 8.9922 10.3994 8.9922 10.5367C8.9922 10.8112 9.02652 11.2574 8.9922 11.532L19.975 15.5133C20.7644 14.2434 22.3775 13.0078 23.9563 13.0078C26.4275 13.0078 28.4524 15.0328 28.4524 17.5039C28.4524 19.975 26.4275 22 23.9563 22C21.4852 22 19.4602 19.975 19.4602 17.5039C19.4602 17.1607 19.4945 16.8175 19.5632 16.5086L8.47738 12.493C7.68799 13.8315 6.14352 14.9984 4.4961 14.9984C2.02496 14.9984 0 12.9735 0 10.5023C0 8.0312 2.02496 6.00624 4.4961 6.00624C6.31513 6.00624 7.85959 7.0702 8.58034 8.61467L19.4602 5.01092C19.4259 4.83932 19.4602 4.66771 19.4602 4.4961C19.4602 2.02496 21.4852 0 23.9563 0C26.4275 0 28.4524 2.02496 28.4524 4.4961C28.4524 7.00156 26.4275 9.02653 23.9563 9.02653ZM23.9563 21.0047C25.8783 21.0047 27.4571 19.4259 27.4571 17.5039C27.4571 15.5819 25.8783 14.0031 23.9563 14.0031C22.0343 14.0031 20.4555 15.5819 20.4555 17.5039C20.4555 19.4259 22.0343 21.0047 23.9563 21.0047ZM4.4961 7.03588C2.5741 7.03588 0.995318 8.61467 0.995318 10.5367C0.995318 12.4587 2.5741 14.0374 4.4961 14.0374C6.41809 14.0374 7.99688 12.4587 7.99688 10.5367C7.99688 8.61467 6.41809 7.03588 4.4961 7.03588ZM23.9563 1.02964C22.0343 1.02964 20.4555 2.60843 20.4555 4.53043C20.4555 6.45242 22.0343 8.0312 23.9563 8.0312C25.8783 8.0312 27.4571 6.45242 27.4571 4.53043C27.4571 2.60843 25.8783 1.02964 23.9563 1.02964Z" fill="black"/>
</svg>
