<svg width="21" height="20" viewBox="0 0 21 20" fill="none" xmlns="http://www.w3.org/2000/svg">
<path d="M10.8474 20C8.86653 19.9999 6.93017 19.4125 5.28315 18.312C3.63614 17.2115 2.35245 15.6473 1.59441 13.8172C0.836374 11.9871 0.638035 9.97338 1.02447 8.03059C1.41091 6.08779 2.36477 4.30321 3.76544 2.90252C5.64652 1.03785 8.18964 -0.0057759 10.8383 2.40462e-05C13.487 0.00582399 16.0255 1.06057 17.8984 2.93347C19.7713 4.80636 20.826 7.34489 20.8318 9.99356C20.8376 12.6422 19.794 15.1853 17.9293 17.0664C17.0015 17.9994 15.8978 18.739 14.6822 19.2425C13.4666 19.7461 12.1632 20.0035 10.8474 20ZM10.7142 13.1554L13.2181 15.0002C13.3387 15.0757 13.4765 15.1195 13.6187 15.1274C13.8701 15.1274 14.0393 14.9411 14.1195 14.5756L15.764 6.8296C15.8009 6.71836 15.8119 6.60015 15.7961 6.48401C15.7803 6.36787 15.7382 6.25689 15.6729 6.15956C15.6293 6.1066 15.5741 6.0644 15.5116 6.03626C15.449 6.00812 15.3808 5.99479 15.3123 5.99731C15.2291 5.99843 15.1468 6.01402 15.0689 6.04338L5.41499 9.76714C5.08748 9.89534 4.9022 10.0616 4.9082 10.2238C4.9082 10.3611 5.05643 10.4852 5.30181 10.5624L7.77364 11.3336L13.5085 7.72798C13.5861 7.67275 13.6778 7.64079 13.7729 7.63584C13.834 7.63584 13.8731 7.65587 13.8901 7.68993C13.9071 7.72398 13.8801 7.77806 13.82 7.83014L9.17881 12.0166L9.00154 14.5646C9.09828 14.5645 9.19373 14.5422 9.28054 14.4995C9.36735 14.4568 9.44322 14.3948 9.50231 14.3182L10.7102 13.1554H10.7142Z" fill="white"/>
</svg>
