<svg width="21" height="20" viewBox="0 0 21 20" fill="none" xmlns="http://www.w3.org/2000/svg">
<path d="M17.5687 0H2.96172C2.24563 0 1.55888 0.284464 1.05253 0.790812C0.546182 1.29716 0.261719 1.98392 0.261719 2.7L0.261719 17.3C0.261719 18.0161 0.546182 18.7028 1.05253 19.2092C1.55888 19.7155 2.24563 20 2.96172 20H10.1617L10.1737 12.853H8.31972C8.2039 12.853 8.09279 12.8071 8.01071 12.7254C7.92863 12.6437 7.88225 12.5328 7.88172 12.417L7.87272 10.117C7.87246 10.0593 7.88359 10.0021 7.90548 9.94877C7.92738 9.8954 7.9596 9.84688 8.0003 9.80599C8.04099 9.76511 8.08937 9.73267 8.14264 9.71053C8.19591 9.68839 8.25303 9.677 8.31072 9.677H10.1617V7.447C10.1089 6.91925 10.172 6.38633 10.3469 5.88558C10.5217 5.38484 10.804 4.9284 11.1738 4.54824C11.5437 4.16809 11.9922 3.87344 12.488 3.68493C12.9837 3.49642 13.5147 3.41863 14.0437 3.457H15.9347C16.0509 3.457 16.1623 3.50315 16.2444 3.58529C16.3266 3.66743 16.3727 3.77884 16.3727 3.895V5.838C16.3727 5.95416 16.3266 6.06557 16.2444 6.14771C16.1623 6.22985 16.0509 6.276 15.9347 6.276H14.7747C13.5217 6.276 13.2747 6.876 13.2747 7.745V9.673H16.0287C16.0906 9.67299 16.1519 9.6861 16.2083 9.71148C16.2648 9.73685 16.3153 9.77391 16.3564 9.82022C16.3975 9.86652 16.4283 9.92101 16.4468 9.9801C16.4653 10.0392 16.4711 10.1015 16.4637 10.163L16.1907 12.463C16.1782 12.5696 16.127 12.6679 16.0468 12.7392C15.9666 12.8106 15.863 12.85 15.7557 12.85H13.2937L13.2817 20H17.5687C18.2827 19.9982 18.9669 19.7136 19.4716 19.2085C19.9763 18.7034 20.2604 18.019 20.2617 17.305V2.7C20.2617 1.98513 19.9782 1.29943 19.4734 0.793282C18.9685 0.287135 18.2836 0.00185338 17.5687 0Z" fill="white"/>
</svg>
