<svg width="21" height="20" viewBox="0 0 21 20" fill="none" xmlns="http://www.w3.org/2000/svg">
<path d="M14.2686 0H6.18456C4.60497 0.00185258 3.09061 0.630164 1.97367 1.7471C0.856726 2.86404 0.228415 4.37841 0.226562 5.958L0.226563 14.042C0.228415 15.6216 0.856726 17.136 1.97367 18.2529C3.09061 19.3698 4.60497 19.9981 6.18456 20H14.2686C15.8482 19.9981 17.3625 19.3698 18.4795 18.2529C19.5964 17.136 20.2247 15.6216 20.2266 14.042V5.958C20.2247 4.37841 19.5964 2.86404 18.4795 1.7471C17.3625 0.630164 15.8482 0.00185258 14.2686 0ZM18.2146 14.042C18.2146 15.0885 17.7988 16.0922 17.0588 16.8322C16.3188 17.5723 15.3151 17.988 14.2686 17.988H6.18456C5.13802 17.988 4.13434 17.5723 3.39432 16.8322C2.6543 16.0922 2.23856 15.0885 2.23856 14.042V5.958C2.23856 4.91146 2.6543 3.90778 3.39432 3.16776C4.13434 2.42774 5.13802 2.012 6.18456 2.012H14.2686C15.3151 2.012 16.3188 2.42774 17.0588 3.16776C17.7988 3.90778 18.2146 4.91146 18.2146 5.958V14.042Z" fill="white"/>
<path d="M10.2277 4.82617C9.20457 4.82617 8.20443 5.12957 7.35373 5.69798C6.50304 6.2664 5.83999 7.0743 5.44846 8.01955C5.05693 8.96479 4.95449 10.0049 5.15409 11.0084C5.35369 12.0118 5.84637 12.9336 6.56983 13.657C7.29329 14.3805 8.21503 14.8732 9.21849 15.0728C10.222 15.2724 11.2621 15.1699 12.2073 14.7784C13.1526 14.3869 13.9605 13.7238 14.5289 12.8731C15.0973 12.0224 15.4007 11.0223 15.4007 9.99918C15.3991 8.6277 14.8536 7.31284 13.8838 6.34306C12.914 5.37328 11.5992 4.82776 10.2277 4.82617ZM10.2277 13.1592C9.60251 13.1592 8.99135 12.9738 8.47153 12.6264C7.95171 12.2791 7.54655 11.7854 7.3073 11.2078C7.06805 10.6302 7.00546 9.99466 7.12743 9.38148C7.2494 8.76831 7.55045 8.20507 7.99253 7.763C8.4346 7.32093 8.99784 7.01987 9.61101 6.8979C10.2242 6.77594 10.8598 6.83854 11.4374 7.07779C12.0149 7.31704 12.5086 7.7222 12.856 8.24202C13.2033 8.76184 13.3887 9.37298 13.3887 9.99817C13.3887 10.8365 13.0557 11.6405 12.4628 12.2333C11.87 12.8261 11.066 13.1592 10.2277 13.1592Z" fill="white"/>
<path d="M15.4109 6.10495C16.0952 6.10495 16.6499 5.55023 16.6499 4.86595C16.6499 4.18167 16.0952 3.62695 15.4109 3.62695C14.7266 3.62695 14.1719 4.18167 14.1719 4.86595C14.1719 5.55023 14.7266 6.10495 15.4109 6.10495Z" fill="white"/>
</svg>
