<svg width="20" height="20" viewBox="0 0 20 20" fill="none" xmlns="http://www.w3.org/2000/svg">
<path d="M18.191 0H1.809C1.32922 0 0.869097 0.190591 0.529844 0.529844C0.190591 0.869097 0 1.32922 0 1.809L0 18.191C0 18.6708 0.190591 19.1309 0.529844 19.4702C0.869097 19.8094 1.32922 20 1.809 20H18.191C18.6708 20 19.1309 19.8094 19.4702 19.4702C19.8094 19.1309 20 18.6708 20 18.191V1.809C20 1.32922 19.8094 0.869097 19.4702 0.529844C19.1309 0.190591 18.6708 0 18.191 0ZM6.191 17.269C6.191 17.4085 6.13558 17.5423 6.03694 17.6409C5.93829 17.7396 5.8045 17.795 5.665 17.795H3.421C3.2815 17.795 3.14771 17.7396 3.04906 17.6409C2.95042 17.5423 2.895 17.4085 2.895 17.269V7.874C2.895 7.7345 2.95042 7.60071 3.04906 7.50206C3.14771 7.40342 3.2815 7.348 3.421 7.348H5.662C5.8015 7.348 5.93529 7.40342 6.03394 7.50206C6.13258 7.60071 6.188 7.7345 6.188 7.874L6.191 17.269ZM4.542 6.462C4.12092 6.462 3.7093 6.33714 3.35919 6.1032C3.00908 5.86926 2.7362 5.53676 2.57506 5.14773C2.41392 4.75871 2.37176 4.33064 2.45391 3.91765C2.53606 3.50467 2.73882 3.12532 3.03657 2.82757C3.33432 2.52982 3.71367 2.32706 4.12665 2.24491C4.53964 2.16276 4.96771 2.20492 5.35673 2.36606C5.74576 2.5272 6.07826 2.80008 6.3122 3.15019C6.54614 3.5003 6.671 3.91192 6.671 4.333C6.671 4.89765 6.4467 5.43917 6.04743 5.83843C5.64817 6.2377 5.10665 6.462 4.542 6.462ZM17.9 17.312C17.9 17.4404 17.849 17.5635 17.7582 17.6542C17.6675 17.745 17.5444 17.796 17.416 17.796H15.016C14.8876 17.796 14.7645 17.745 14.6738 17.6542C14.583 17.5635 14.532 17.4404 14.532 17.312V12.905C14.532 12.248 14.725 10.024 12.814 10.024C11.332 10.024 11.031 11.546 10.971 12.224V17.307C10.971 17.4354 10.92 17.5585 10.8292 17.6492C10.7385 17.74 10.6154 17.791 10.487 17.791H8.157C8.02863 17.791 7.90553 17.74 7.81476 17.6492C7.72399 17.5585 7.673 17.4354 7.673 17.307V7.832C7.673 7.70363 7.72399 7.58053 7.81476 7.48976C7.90553 7.39899 8.02863 7.348 8.157 7.348H10.483C10.6114 7.348 10.7345 7.39899 10.8252 7.48976C10.916 7.58053 10.967 7.70363 10.967 7.832V8.652C11.3007 8.14698 11.7669 7.74346 12.3145 7.48561C12.8621 7.22775 13.4701 7.12548 14.072 7.19C17.923 7.19 17.901 10.79 17.901 12.764V17.311L17.9 17.312Z" fill="white"/>
</svg>
